<?xml version="1.0" standalone="no"?>
<!DOCTYPE svg PUBLIC "-//W3C//DTD SVG 20010904//EN"
 "http://www.w3.org/TR/2001/REC-SVG-20010904/DTD/svg10.dtd">
<svg version="1.0" xmlns="http://www.w3.org/2000/svg"
 width="700.000000pt" height="700.000000pt" viewBox="0 0 700.000000 700.000000"
 preserveAspectRatio="xMidYMid meet">
<metadata>
Created by potrace 1.11, written by Peter Selinger 2001-2013
</metadata>
<g transform="translate(0.000000,700.000000) scale(0.100000,-0.100000)"
fill="#000000" stroke="none">
<path d="M2610 6867 c-14 -6 -31 -17 -38 -24 -7 -7 -18 -16 -25 -20 -7 -5 -21
-24 -32 -43 -19 -33 -20 -58 -25 -459 l-5 -424 -40 -14 c-43 -14 -81 -30 -105
-44 -8 -5 -40 -21 -70 -36 -30 -14 -56 -30 -58 -35 -2 -4 -8 -8 -13 -8 -5 0
-42 -22 -82 -50 -40 -27 -79 -50 -86 -50 -15 0 -109 49 -129 68 -7 6 -20 12
-28 12 -8 0 -14 4 -14 8 0 5 -15 16 -32 25 -36 18 -101 56 -223 127 -42 25
-89 52 -104 60 -14 8 -56 32 -91 53 -36 21 -74 43 -85 50 -11 6 -32 19 -46 28
-35 23 -90 33 -143 25 -55 -9 -128 -74 -166 -151 -8 -16 -18 -32 -21 -35 -3
-3 -14 -18 -23 -35 -9 -16 -28 -48 -41 -70 -14 -22 -30 -49 -35 -60 -5 -11
-21 -38 -35 -60 -14 -22 -30 -52 -36 -67 -6 -16 -15 -28 -19 -28 -5 0 -12 -10
-16 -22 -3 -12 -10 -26 -15 -32 -16 -19 -61 -89 -70 -110 -6 -12 -20 -37 -32
-58 -58 -96 -154 -254 -175 -287 -12 -20 -25 -43 -29 -51 -3 -8 -16 -28 -27
-45 -12 -16 -27 -41 -34 -55 -13 -27 -34 -62 -42 -70 -3 -3 -12 -18 -20 -35
-8 -16 -21 -36 -27 -43 -7 -7 -16 -24 -19 -38 -3 -13 -10 -24 -15 -24 -5 0
-16 -15 -24 -32 -9 -18 -21 -42 -28 -53 -118 -191 -121 -197 -121 -267 -1 -58
3 -71 29 -109 30 -42 66 -67 245 -169 52 -29 109 -64 126 -77 17 -13 35 -23
39 -23 4 0 22 -10 39 -23 17 -12 42 -28 56 -35 42 -20 135 -74 140 -81 3 -3
19 -13 35 -21 17 -8 35 -19 40 -23 6 -5 25 -17 44 -28 l34 -20 -7 -72 c-16
-181 -18 -260 -7 -356 14 -117 20 -106 -79 -162 -30 -18 -57 -34 -60 -38 -3
-3 -21 -14 -40 -23 -35 -18 -70 -38 -192 -109 -36 -21 -70 -39 -74 -39 -4 0
-15 -6 -23 -14 -9 -8 -38 -26 -66 -42 -27 -15 -52 -30 -55 -33 -3 -3 -36 -22
-75 -41 -157 -78 -207 -177 -154 -301 12 -27 25 -49 29 -49 4 0 11 -11 14 -24
3 -14 12 -31 19 -38 6 -7 23 -33 36 -58 13 -25 29 -52 36 -60 6 -8 17 -30 25
-47 7 -18 16 -33 20 -33 4 0 11 -11 14 -24 3 -14 12 -31 19 -38 6 -7 23 -33
36 -58 13 -25 30 -52 36 -60 7 -8 16 -25 19 -37 4 -13 13 -29 19 -35 7 -7 21
-31 33 -53 35 -67 65 -119 78 -135 7 -8 18 -30 26 -47 7 -18 15 -33 19 -33 3
0 12 -14 20 -31 14 -32 74 -137 89 -154 4 -5 14 -25 21 -42 7 -18 16 -33 20
-33 3 0 12 -14 20 -31 13 -30 73 -135 88 -154 4 -5 15 -23 23 -40 8 -16 17
-32 20 -35 3 -3 12 -18 20 -35 7 -16 23 -43 35 -60 12 -16 27 -45 34 -62 8
-18 17 -33 22 -33 5 0 9 -6 9 -13 0 -15 55 -69 87 -86 12 -6 48 -11 80 -11 46
0 71 6 113 29 30 16 71 37 90 47 19 10 37 21 40 24 3 3 28 16 55 30 28 13 57
29 65 36 8 6 60 35 115 64 55 29 111 61 125 70 14 10 43 26 65 37 39 20 104
55 177 95 l36 21 82 -57 c45 -31 85 -56 90 -56 5 0 15 -6 22 -13 7 -7 40 -26
73 -43 33 -16 62 -31 65 -34 6 -6 107 -49 133 -57 16 -5 17 -34 17 -419 l0
-415 25 -49 c13 -27 34 -51 45 -55 11 -3 20 -10 20 -15 0 -27 106 -30 950 -30
844 0 950 3 950 30 0 5 9 12 20 15 11 4 32 28 45 55 l25 49 0 418 0 418 91 44
c75 36 207 111 315 181 18 11 26 11 53 -1 17 -8 31 -16 31 -20 0 -3 16 -11 35
-19 19 -8 35 -17 35 -21 0 -3 15 -12 33 -19 17 -8 39 -19 47 -26 8 -6 31 -21
50 -32 64 -36 201 -117 238 -140 20 -12 46 -27 57 -33 11 -5 38 -21 60 -35 22
-13 48 -27 58 -30 9 -4 17 -10 17 -14 0 -4 15 -13 33 -21 17 -7 35 -17 38 -21
10 -16 114 -21 152 -9 57 19 116 83 143 154 3 9 9 17 13 17 4 0 13 16 21 35 8
19 17 35 22 35 4 0 8 5 8 11 0 6 10 25 22 42 13 18 30 44 38 59 8 16 28 52 44
80 15 29 34 60 41 68 7 8 16 25 19 38 4 12 11 22 16 22 5 0 12 9 15 21 4 11
23 46 43 77 56 87 61 95 77 127 8 17 23 42 32 56 10 15 45 72 78 129 33 56 70
118 83 138 13 21 25 45 29 54 3 10 9 18 13 18 4 0 13 15 21 32 7 18 15 35 19
38 7 6 33 47 61 97 12 21 29 49 37 63 7 14 25 43 38 65 13 22 27 48 30 58 4 9
9 17 13 17 4 0 13 16 21 35 8 19 17 35 21 35 15 0 31 84 25 128 -3 24 -18 60
-32 80 -26 36 -101 92 -122 92 -6 0 -12 4 -14 8 -1 5 -32 25 -68 46 -36 20
-83 48 -105 62 -22 13 -47 27 -55 31 -8 4 -21 13 -28 20 -7 7 -20 13 -27 13
-7 0 -20 6 -27 13 -14 14 -135 87 -144 87 -3 0 -20 10 -37 22 -38 27 -85 55
-109 64 -10 3 -18 10 -18 15 0 5 -6 9 -14 9 -33 0 -36 24 -24 172 8 104 9 176
2 259 -9 100 -9 116 6 132 14 15 60 43 158 94 17 9 32 20 32 25 0 4 6 8 14 8
8 0 21 6 28 13 7 7 42 27 78 46 36 18 117 64 180 102 63 38 122 72 130 76 29
13 133 76 152 92 36 29 52 73 52 141 0 67 -7 87 -49 155 -14 22 -29 50 -35 61
-5 12 -12 23 -17 25 -4 2 -16 20 -26 39 -28 57 -70 131 -110 196 -20 34 -37
66 -37 72 0 5 -6 15 -14 21 -8 7 -26 36 -40 66 -15 29 -30 55 -34 57 -4 2 -20
30 -37 63 -16 33 -35 67 -41 75 -7 8 -24 38 -39 67 -14 28 -30 53 -33 55 -4 2
-15 19 -25 38 -9 19 -33 62 -52 95 -19 33 -42 74 -50 92 -8 17 -18 33 -22 35
-5 1 -16 19 -26 38 -9 19 -33 62 -52 95 -19 33 -42 74 -50 92 -8 17 -18 33
-22 35 -8 3 -26 34 -80 140 -38 73 -91 115 -155 123 -57 7 -135 -7 -153 -28
-5 -7 -36 -25 -68 -42 -84 -44 -115 -61 -129 -72 -7 -6 -49 -29 -93 -53 -44
-24 -92 -51 -107 -61 -14 -11 -31 -19 -36 -19 -6 0 -17 -6 -24 -12 -8 -7 -34
-24 -58 -37 -25 -14 -86 -48 -136 -76 -90 -51 -91 -52 -114 -33 -12 10 -28 18
-35 18 -7 0 -15 7 -19 15 -3 8 -12 15 -19 15 -8 0 -24 9 -37 20 -13 11 -29 20
-37 20 -7 0 -13 3 -13 8 0 8 -121 72 -138 72 -6 0 -12 4 -14 9 -1 5 -29 20
-60 35 l-58 26 0 421 c0 418 0 422 -22 463 -13 22 -28 44 -35 49 -7 4 -18 13
-25 20 -39 37 -47 37 -961 36 -656 0 -899 -3 -917 -12z m1940 -2831 c-16 -25
-30 -47 -30 -50 0 -4 -16 -29 -35 -56 -19 -27 -35 -54 -35 -60 0 -5 -4 -10
-10 -10 -5 0 -10 -5 -10 -10 0 -6 -22 -44 -50 -85 -27 -41 -50 -77 -50 -80 0
-3 -16 -27 -35 -54 -19 -26 -35 -51 -35 -55 0 -3 -16 -29 -35 -56 -19 -27 -35
-52 -35 -55 0 -3 -27 -46 -60 -95 -33 -49 -60 -92 -60 -95 0 -3 -16 -27 -35
-54 -19 -26 -35 -51 -35 -55 0 -3 -16 -29 -35 -56 -19 -27 -35 -52 -35 -55 0
-5 -84 -137 -152 -237 -21 -31 -38 -59 -38 -63 0 -4 -16 -30 -35 -56 -19 -27
-35 -51 -35 -54 0 -2 -27 -46 -60 -96 -33 -50 -60 -95 -60 -100 0 -5 -7 -9
-15 -9 -8 0 -15 5 -15 11 0 6 -13 30 -30 54 -16 24 -30 48 -30 54 0 6 -4 11
-8 11 -5 0 -14 10 -21 23 -6 12 -20 36 -31 52 -11 17 -27 45 -37 63 -9 17 -20
32 -25 32 -4 0 -8 5 -8 10 0 12 -52 94 -62 98 -5 2 -8 8 -8 14 0 5 -13 29 -30
53 -16 24 -30 48 -30 54 0 6 -4 11 -8 11 -5 0 -14 10 -21 23 -6 12 -20 36 -31
52 -11 17 -27 45 -37 63 -9 17 -20 32 -25 32 -4 0 -8 5 -8 10 0 12 -52 94 -62
98 -5 2 -8 8 -8 14 0 5 -13 29 -30 53 -16 24 -30 47 -30 50 0 4 -12 24 -27 44
-37 48 -50 70 -68 109 -9 17 -20 32 -25 32 -6 0 -10 5 -10 10 0 12 -52 94 -62
98 -5 2 -8 8 -8 13 0 10 -22 46 -107 175 -29 45 -53 87 -53 93 0 6 -7 14 -15
17 -8 4 -15 11 -15 16 0 5 -8 22 -18 36 -10 15 -22 35 -25 45 -6 16 47 17
1034 17 l1040 0 -31 -44z"/>
</g>
</svg>
