<svg xmlns="http://www.w3.org/2000/svg" xmlns:xlink="http://www.w3.org/1999/xlink" width="512" height="512">
    <title>tophackr</title>
    <g id="main" fill-rule="evenodd" stroke="rgb(108, 117, 125)" stroke-width="15px" stroke-linecap="round" stroke-linejoin="round" fill="none">
        <g id="laptop">
            <path id="stand" d="M98.518,489.500 L98.518,488.500 L372.482,488.500 L372.482,489.500 L98.518,489.500 Z"/>
            <path id="monitor" d="M98.500,301.500 L372.500,301.500 L372.500,464.500 L98.500,464.500 L98.500,301.500 Z"/>
        </g>
        <g id="code">
            <path id="code-right" d="M248.857,346.885 C253.141,350.856 283.873,379.497 288.144,383.497 C284.262,387.086 253.157,416.132 248.857,420.115"/>
            <path id="code-left" d="M219.143,346.885 C214.859,350.856 184.127,379.497 179.856,383.497 C183.738,387.086 214.843,416.132 219.143,420.115"/>
        </g>
        <g id="hands">
            <path id="hand-right" d="M399.500,464.500 C415.869,459.158 438.086,450.305 443.500,445.500 C454.485,439.559 460.219,425.179 455.500,407.500 C452.877,397.676 421.384,286.584 414.500,262.500 C407.582,249.447 402.824,243.373 394.500,238.500 C383.225,231.879 366.268,221.582 347.500,209.500"/>
            <path id="hand-left" d="M73.500,464.500 C57.131,459.158 34.914,450.305 29.500,445.500 C18.515,439.559 12.781,425.179 17.500,407.500 C20.123,397.676 51.616,286.584 58.500,262.500 C65.418,249.447 70.176,243.373 78.500,238.500 C89.775,231.879 106.732,221.582 125.500,209.500"/>
        </g>
        <g id="head">
            <path id="head-right" d="M296.500,271.500 C305.597,266.391 316.034,260.168 329.500,252.500 C340.740,216.408 348.145,192.063 358.500,158.500 C361.382,144.121 360.303,140.486 351.500,127.500 C333.576,99.300 314.385,69.019 285.500,33.500 C279.652,27.681 279.474,26.962 270.500,22.500 C261.195,17.934 243.539,15.537 235.500,15.500"/>
            <path id="head-left" d="M174.500,271.500 C165.403,266.391 154.966,260.168 141.500,252.500 C130.260,216.408 122.855,192.063 112.500,158.500 C109.618,144.121 110.697,140.486 119.500,127.500 C137.424,99.300 156.615,69.019 185.500,33.500 C191.348,27.681 191.526,26.962 200.500,22.500 C209.805,17.934 227.507,15.539 235.500,15.500"/>
        </g>
        <g id="brows">
            <path id="brow-right" d="M311.500,166.500 C291.590,151.091 281.524,143.969 261.500,131.500 C248.599,123.406 241.464,123.573 235.500,123.500"/>
            <path id="brow-left" d="M159.500,166.500 C179.410,151.091 189.476,143.969 209.500,131.500 C222.401,123.406 229.536,123.573 235.500,123.500"/>
        </g>
        <g id="chin">
            <path id="chin-right" d="M288.500,175.500 C282.925,191.592 276.976,207.137 270.500,222.500 C268.003,228.424 264.351,236.701 255.500,241.500 C249.620,244.688 242.743,245.535 235.500,245.500"/>
            <path id="chin-left" d="M179.500,175.500 C185.075,191.592 191.024,207.137 197.500,222.500 C199.997,228.424 203.649,236.701 212.500,241.500 C218.380,244.688 225.257,245.535 232.500,245.500"/>
        </g>
    </g>
</svg>